<svg version="1.1" id="Layer_1" xmlns="http://www.w3.org/2000/svg" xmlns:xlink="http://www.w3.org/1999/xlink" x="0px" y="0px"
	 width="100%" viewBox="0 0 396 212" enable-background="new 0 0 396 212" xml:space="preserve">
<path fill="#000000" opacity="1.000000" stroke="none" 
	d="
M238.000000,213.000000 
	C158.666687,213.000000 79.833382,213.000000 1.000053,213.000000 
	C1.000035,142.333374 1.000035,71.666756 1.000018,1.000100 
	C132.999924,1.000067 264.999847,1.000067 396.999817,1.000033 
	C396.999878,71.666557 396.999878,142.333115 396.999939,212.999847 
	C344.166656,213.000000 291.333344,213.000000 238.000000,213.000000 
M243.334656,79.369957 
	C245.082443,74.657990 245.151306,69.997360 242.982986,65.409882 
	C242.982986,70.270645 242.982986,75.131409 242.857498,80.193672 
	C242.845428,80.376541 242.833359,80.559418 242.821289,80.742287 
	C242.889481,80.503784 242.957657,80.265282 243.334656,79.369957 
M152.600128,48.431110 
	C151.744965,47.943012 150.913727,47.405472 150.029556,46.977268 
	C148.279663,46.129803 146.378937,43.742638 144.744644,46.925022 
	C143.068726,50.188496 145.327820,51.311562 148.370590,52.575321 
	C149.437836,53.331932 150.440155,54.211349 151.586838,54.817757 
	C153.543518,55.852512 155.721481,57.744282 157.217133,54.220730 
	C158.548386,51.084454 156.109421,50.640514 153.826263,49.513168 
	C153.622910,49.258476 153.377182,49.054913 152.600128,48.431110 
M244.330124,178.575729 
	C244.525818,178.876312 244.721512,179.176910 244.445511,180.137909 
	C243.830963,182.173355 243.255829,184.221756 242.592056,186.241013 
	C241.724716,188.879608 242.579361,190.477844 245.362518,190.786911 
	C247.001846,190.968933 248.673859,190.980469 250.324631,190.911789 
	C254.867828,190.722717 255.674927,189.242172 253.952194,184.892471 
	C253.296478,183.236923 253.053696,181.417847 252.583099,179.421326 
	C252.583099,179.421326 252.376480,179.271774 252.523300,178.468460 
	C252.457825,178.204254 252.392334,177.940033 252.580383,177.552017 
	C252.580383,177.552017 252.687973,177.291199 252.853088,176.602661 
	C253.428741,174.461212 254.207779,172.348038 254.510513,170.168671 
	C254.722031,168.645950 254.579208,165.783310 254.083817,165.665421 
	C251.168533,164.971512 248.099716,164.701141 245.090561,164.752365 
	C244.135742,164.768631 243.089203,166.112503 242.321960,167.044266 
	C242.024948,167.404938 242.333603,168.317062 242.455582,168.961060 
	C243.029373,171.989990 243.634155,175.013062 244.330124,178.575729 
M213.371353,185.083099 
	C212.975876,185.382324 212.580383,185.681549 212.092957,186.792282 
	C211.779526,189.874115 213.408768,191.033203 216.237946,190.869446 
	C219.530289,190.678879 222.862335,190.662704 226.098450,190.110016 
	C235.154495,188.563309 238.839447,182.058167 235.887070,172.264160 
	C232.860855,166.504135 219.174286,161.779327 213.865723,164.921082 
	C211.670975,166.220001 210.711746,168.338409 213.920731,170.983582 
	C213.905640,175.640656 213.890549,180.297745 213.371353,185.083099 
M180.879929,144.911591 
	C194.848068,145.518723 208.452347,144.310715 221.029083,137.367508 
	C223.908310,135.777969 224.996231,134.141998 224.212448,130.614594 
	C221.698227,119.299545 217.290939,108.944992 208.721634,101.024025 
	C199.502502,92.502403 187.736938,88.261719 175.049652,96.183113 
	C161.987900,104.338310 156.196960,117.109306 152.982925,131.520050 
	C152.305176,134.558868 152.978043,136.362549 155.846024,137.276962 
	C163.875916,139.837173 171.924042,142.340073 180.879929,144.911591 
M194.187988,53.989826 
	C186.059647,51.570656 179.431259,53.729607 175.001862,60.238953 
	C170.648621,66.636398 170.987976,73.966698 175.940353,80.511337 
	C180.181168,86.115646 187.758972,88.293243 194.627014,85.615326 
	C201.531982,82.923012 205.317871,77.360153 205.457825,70.300705 
	C205.601929,63.031178 201.779617,57.399456 194.187988,53.989826 
M192.855881,188.521637 
	C192.939102,188.199463 193.022324,187.877274 193.105530,187.555084 
	C194.064209,188.166779 195.086014,188.699371 195.969910,189.404755 
	C198.798355,191.661926 203.362991,191.471176 205.322510,188.727188 
	C207.643066,185.477661 207.295670,183.233200 203.057831,181.525833 
	C200.646698,180.554443 200.266296,178.063461 201.931229,175.215393 
	C204.513504,170.798080 201.869324,165.680405 196.886093,165.193130 
	C192.262421,164.741043 187.576508,164.830139 182.918900,164.854187 
	C179.829712,164.870132 179.100479,167.027985 180.312469,169.269043 
	C183.304581,174.801651 182.451889,180.136993 180.576096,185.707169 
	C180.167328,186.921005 181.193604,189.895157 181.556946,189.894836 
	C185.274551,189.891434 188.991745,189.441101 192.855881,188.521637 
M107.656502,167.899200 
	C101.634743,162.286255 94.487419,165.396118 87.766869,165.518295 
	C87.311432,165.526581 86.217232,168.109055 86.576904,169.054047 
	C88.729210,174.708878 88.727173,180.158646 86.596817,185.851624 
	C86.135773,187.083710 87.647308,190.462494 88.217262,190.454651 
	C94.126137,190.373352 100.132133,190.288849 105.869247,189.068268 
	C107.600830,188.699875 109.980377,184.542435 109.617355,182.570999 
	C108.835945,178.327560 107.837196,174.246536 108.614594,169.910706 
	C108.686470,169.509811 108.232010,169.014557 107.656502,167.899200 
M150.267105,178.773819 
	C149.088776,181.042114 147.853577,183.283096 146.747147,185.585953 
	C145.487793,188.207062 146.062958,190.206299 149.139114,190.724747 
	C150.918854,191.024689 152.786041,190.942337 154.604507,190.849091 
	C159.236923,190.611496 160.233246,188.337372 158.067459,184.024078 
	C159.029572,184.960480 159.336151,186.221436 160.006851,187.243408 
	C160.868835,188.556778 161.888809,190.526093 163.078079,190.714493 
	C165.982300,191.174591 169.112061,191.165909 171.964630,190.521225 
	C173.086380,190.267715 174.739075,187.481064 174.393112,186.421814 
	C172.411377,180.354263 169.896347,174.461227 167.572083,168.505127 
	C166.174240,164.922989 155.422989,162.800629 152.912964,165.681244 
	C152.430405,166.235062 152.330963,167.180481 152.196030,167.969421 
	C151.622421,171.322998 151.101990,174.685684 150.267105,178.773819 
M130.928329,190.770599 
	C140.906387,189.470810 142.962189,177.062378 139.312790,170.206223 
	C136.837234,165.555405 130.801346,163.114822 125.136597,164.243607 
	C120.634514,165.140732 115.714035,169.665619 115.209869,173.642776 
	C113.709473,185.478806 118.868210,191.824341 130.928329,190.770599 
M272.358429,183.344894 
	C273.071014,182.603348 273.774933,181.853241 274.498138,181.122208 
	C275.619690,179.988541 276.754395,178.867889 277.883514,177.741745 
	C276.793365,176.796692 275.669159,175.887604 274.622986,174.896179 
	C273.631287,173.956390 272.721313,172.930313 271.775421,171.942169 
	C272.235443,171.507523 272.695465,171.072876 273.155487,170.638229 
	C274.193512,171.423508 275.128815,172.593033 276.293549,172.904358 
	C278.057770,173.375931 281.194580,173.948410 281.600861,173.242386 
	C282.646881,171.424515 282.925354,168.878403 282.664520,166.725769 
	C282.548126,165.765152 280.403381,164.353394 279.173706,164.347794 
	C274.379150,164.325851 269.583069,164.797699 264.786194,165.060593 
	C261.330566,165.249969 261.087433,166.928513 261.521942,170.098450 
	C262.191162,174.980438 262.645203,180.119522 261.817963,184.912628 
	C261.047272,189.377762 261.136353,190.614502 265.840088,190.831650 
	C267.168640,190.892990 268.551636,191.078049 269.820801,190.800339 
	C271.476257,190.438080 273.043274,189.671600 274.648346,189.079041 
	C273.947327,187.408188 273.246277,185.737335 272.358429,183.344894 
M288.765747,164.332214 
	C286.576111,166.214615 286.826935,167.897812 288.471130,170.266403 
	C291.935699,175.257401 297.896667,179.501160 294.364044,187.142395 
	C294.065857,187.787354 295.963043,190.202591 297.235321,190.636078 
	C299.014832,191.242401 301.343781,191.232803 303.096222,190.575882 
	C304.288788,190.128815 305.951599,187.485535 305.604584,186.910690 
	C301.725586,180.485352 307.880524,176.912201 309.561615,172.139679 
	C310.267792,170.134796 311.485687,168.310150 312.470978,166.403580 
	C310.320190,165.840012 308.190186,165.164230 306.009735,164.761078 
	C304.948975,164.564941 303.794037,164.878311 302.023376,165.009979 
	C302.023376,167.930984 302.023376,170.633835 302.023376,173.336685 
	C301.483612,173.329285 300.943878,173.321884 300.404114,173.314484 
	C300.404114,172.149063 300.050659,170.836029 300.465118,169.843719 
	C302.285645,165.485031 299.638428,164.505432 296.297028,164.187363 
	C294.042023,163.972717 291.750763,164.138397 288.765747,164.332214 
M233.390564,69.978600 
	C231.731934,70.002762 230.044617,69.851059 228.425140,70.115242 
	C227.408813,70.281029 225.911530,70.885323 225.674866,71.626518 
	C225.344391,72.661453 225.921402,75.044205 226.227234,75.064262 
	C230.277771,75.329880 234.355194,75.392166 238.405975,75.159019 
	C238.858307,75.132996 239.672501,72.054825 239.500092,71.965088 
	C237.864792,71.113884 236.052185,70.603294 233.390564,69.978600 
M191.125565,35.174706 
	C191.317093,31.917171 191.653671,28.657591 191.607712,25.403410 
	C191.594696,24.481615 190.642410,23.276657 189.784882,22.767817 
	C189.216736,22.430683 187.279037,23.066799 187.267410,23.326092 
	C187.082962,27.439468 187.095596,31.562910 187.237350,35.678051 
	C187.239502,35.740158 189.444016,35.726406 191.125565,35.174706 
M219.923340,53.700291 
	C220.919098,54.577526 222.405075,56.402958 222.832962,56.181747 
	C226.207108,54.437302 229.454010,52.401276 232.485016,50.116596 
	C232.754807,49.913227 231.216660,47.311325 230.518188,45.823395 
	C226.900818,48.238556 223.283447,50.653717 219.923340,53.700291 
M171.908707,38.631756 
	C170.362854,35.739021 169.002640,32.719437 167.163162,30.027330 
	C166.576492,29.168716 164.717636,29.179367 163.440887,28.792271 
	C163.071747,30.064421 162.089569,31.559528 162.455063,32.564499 
	C163.345428,35.012669 164.652252,37.383362 166.178268,39.507267 
	C167.999176,42.041622 170.130844,42.423611 171.908707,38.631756 
M149.806900,70.187805 
	C146.848206,70.177750 143.856476,69.916336 140.949280,70.298325 
	C139.973755,70.426506 138.733063,72.109375 138.534592,73.242889 
	C138.414963,73.926178 139.975128,75.502869 140.944901,75.659424 
	C143.356155,76.048683 145.888168,76.099594 148.323059,75.836479 
	C151.948944,75.444679 152.887558,73.561844 149.806900,70.187805 
M215.510681,31.391420 
	C214.445938,27.505323 212.380386,27.413956 210.128494,30.272896 
	C208.518539,32.316860 207.188385,34.667770 206.198990,37.073235 
	C205.777573,38.097862 206.544250,39.611164 206.771011,40.902390 
	C208.154922,40.518742 210.105621,40.574936 210.811600,39.665199 
	C212.601364,37.358906 213.832840,34.619370 215.510681,31.391420 
M148.334503,92.872818 
	C146.484451,94.197128 142.895767,94.861061 145.172882,98.068840 
	C145.800949,98.953613 149.003387,98.028160 151.021652,97.890274 
	C151.324875,97.869560 151.680573,97.678169 151.895706,97.454086 
	C153.776947,95.494698 159.240356,95.401665 156.709320,91.178955 
	C154.159012,86.924103 151.520752,91.589043 148.334503,92.872818 
z"/>
<path fill="#303645" opacity="1.000000" stroke="none" 
	d="
M180.422455,144.888596 
	C171.924042,142.340073 163.875916,139.837173 155.846024,137.276962 
	C152.978043,136.362549 152.305176,134.558868 152.982925,131.520050 
	C156.196960,117.109306 161.987900,104.338310 175.049652,96.183113 
	C187.736938,88.261719 199.502502,92.502403 208.721634,101.024025 
	C217.290939,108.944992 221.698227,119.299545 224.212448,130.614594 
	C224.996231,134.141998 223.908310,135.777969 221.029083,137.367508 
	C208.452347,144.310715 194.848068,145.518723 180.422455,144.888596 
z"/>
<path fill="#2F3544" opacity="1.000000" stroke="none" 
	d="
M194.570847,54.092216 
	C201.779617,57.399456 205.601929,63.031178 205.457825,70.300705 
	C205.317871,77.360153 201.531982,82.923012 194.627014,85.615326 
	C187.758972,88.293243 180.181168,86.115646 175.940353,80.511337 
	C170.987976,73.966698 170.648621,66.636398 175.001862,60.238953 
	C179.431259,53.729607 186.059647,51.570656 194.570847,54.092216 
z"/>
<path fill="#2E3341" opacity="1.000000" stroke="none" 
	d="
M192.782471,188.818634 
	C188.991745,189.441101 185.274551,189.891434 181.556946,189.894836 
	C181.193604,189.895157 180.167328,186.921005 180.576096,185.707169 
	C182.451889,180.136993 183.304581,174.801651 180.312469,169.269043 
	C179.100479,167.027985 179.829712,164.870132 182.918900,164.854187 
	C187.576508,164.830139 192.262421,164.741043 196.886093,165.193130 
	C201.869324,165.680405 204.513504,170.798080 201.931229,175.215393 
	C200.266296,178.063461 200.646698,180.554443 203.057831,181.525833 
	C207.295670,183.233200 207.643066,185.477661 205.322510,188.727188 
	C203.362991,191.471176 198.798355,191.661926 195.969910,189.404755 
	C195.086014,188.699371 194.064209,188.166779 193.105530,187.555084 
	C193.022324,187.877274 192.939102,188.199463 192.782471,188.818634 
z"/>
<path fill="#2F3443" opacity="1.000000" stroke="none" 
	d="
M107.839218,168.231155 
	C108.232010,169.014557 108.686470,169.509811 108.614594,169.910706 
	C107.837196,174.246536 108.835945,178.327560 109.617355,182.570999 
	C109.980377,184.542435 107.600830,188.699875 105.869247,189.068268 
	C100.132133,190.288849 94.126137,190.373352 88.217262,190.454651 
	C87.647308,190.462494 86.135773,187.083710 86.596817,185.851624 
	C88.727173,180.158646 88.729210,174.708878 86.576904,169.054047 
	C86.217232,168.109055 87.311432,165.526581 87.766869,165.518295 
	C94.487419,165.396118 101.634743,162.286255 107.839218,168.231155 
z"/>
<path fill="#2E3343" opacity="1.000000" stroke="none" 
	d="
M150.414612,178.409424 
	C151.101990,174.685684 151.622421,171.322998 152.196030,167.969421 
	C152.330963,167.180481 152.430405,166.235062 152.912964,165.681244 
	C155.422989,162.800629 166.174240,164.922989 167.572083,168.505127 
	C169.896347,174.461227 172.411377,180.354263 174.393112,186.421814 
	C174.739075,187.481064 173.086380,190.267715 171.964630,190.521225 
	C169.112061,191.165909 165.982300,191.174591 163.078079,190.714493 
	C161.888809,190.526093 160.868835,188.556778 160.006851,187.243408 
	C159.336151,186.221436 159.029572,184.960480 158.067459,184.024078 
	C160.233246,188.337372 159.236923,190.611496 154.604507,190.849091 
	C152.786041,190.942337 150.918854,191.024689 149.139114,190.724747 
	C146.062958,190.206299 145.487793,188.207062 146.747147,185.585953 
	C147.853577,183.283096 149.088776,181.042114 150.414612,178.409424 
z"/>
<path fill="#2E3342" opacity="1.000000" stroke="none" 
	d="
M130.512054,190.798431 
	C118.868210,191.824341 113.709473,185.478806 115.209869,173.642776 
	C115.714035,169.665619 120.634514,165.140732 125.136597,164.243607 
	C130.801346,163.114822 136.837234,165.555405 139.312790,170.206223 
	C142.962189,177.062378 140.906387,189.470810 130.512054,190.798431 
M124.990417,177.507904 
	C125.007599,178.164673 124.784103,178.974792 125.086731,179.449661 
	C126.024582,180.921310 127.162514,182.265442 128.222794,183.659058 
	C129.136063,182.268478 130.169281,180.937851 130.907898,179.459976 
	C131.237259,178.800934 131.226166,177.738434 130.931488,177.045273 
	C130.104370,175.099670 129.049454,173.250900 128.084381,171.363937 
	C127.060265,173.133987 126.036148,174.904053 124.990417,177.507904 
z"/>
<path fill="#2F3444" opacity="1.000000" stroke="none" 
	d="
M272.451843,183.705688 
	C273.246277,185.737335 273.947327,187.408188 274.648346,189.079041 
	C273.043274,189.671600 271.476257,190.438080 269.820801,190.800339 
	C268.551636,191.078049 267.168640,190.892990 265.840088,190.831650 
	C261.136353,190.614502 261.047272,189.377762 261.817963,184.912628 
	C262.645203,180.119522 262.191162,174.980438 261.521942,170.098450 
	C261.087433,166.928513 261.330566,165.249969 264.786194,165.060593 
	C269.583069,164.797699 274.379150,164.325851 279.173706,164.347794 
	C280.403381,164.353394 282.548126,165.765152 282.664520,166.725769 
	C282.925354,168.878403 282.646881,171.424515 281.600861,173.242386 
	C281.194580,173.948410 278.057770,173.375931 276.293549,172.904358 
	C275.128815,172.593033 274.193512,171.423508 273.155487,170.638229 
	C272.695465,171.072876 272.235443,171.507523 271.775421,171.942169 
	C272.721313,172.930313 273.631287,173.956390 274.622986,174.896179 
	C275.669159,175.887604 276.793365,176.796692 277.883514,177.741730 
	C276.754395,178.867889 275.619690,179.988541 274.498138,181.122208 
	C273.774933,181.853241 273.071014,182.603348 272.451843,183.705688 
z"/>
<path fill="#2F3442" opacity="1.000000" stroke="none" 
	d="
M289.120728,164.233078 
	C291.750763,164.138397 294.042023,163.972717 296.297028,164.187363 
	C299.638428,164.505432 302.285645,165.485031 300.465118,169.843719 
	C300.050659,170.836029 300.404114,172.149063 300.404114,173.314484 
	C300.943878,173.321884 301.483612,173.329285 302.023376,173.336685 
	C302.023376,170.633835 302.023376,167.930984 302.023376,165.009979 
	C303.794037,164.878311 304.948975,164.564941 306.009735,164.761078 
	C308.190186,165.164230 310.320190,165.840012 312.470978,166.403580 
	C311.485687,168.310150 310.267792,170.134796 309.561615,172.139679 
	C307.880524,176.912201 301.725586,180.485352 305.604584,186.910690 
	C305.951599,187.485535 304.288788,190.128815 303.096222,190.575882 
	C301.343781,191.232803 299.014832,191.242401 297.235321,190.636078 
	C295.963043,190.202591 294.065857,187.787354 294.364044,187.142395 
	C297.896667,179.501160 291.935699,175.257401 288.471130,170.266403 
	C286.826935,167.897812 286.576111,166.214615 289.120728,164.233078 
z"/>
<path fill="#303645" opacity="1.000000" stroke="none" 
	d="
M212.184906,185.980774 
	C212.580383,185.681549 212.975876,185.382324 213.888702,184.754150 
	C216.635788,179.543335 217.216461,174.725754 213.846268,170.062164 
	C210.711746,168.338409 211.670975,166.220001 213.865723,164.921082 
	C219.174286,161.779327 232.860855,166.504135 235.841644,172.989899 
	C235.583313,174.688614 235.309296,175.652725 235.166779,176.635895 
	C233.472351,188.325317 222.018097,192.988235 212.184906,185.980774 
M227.813751,182.679092 
	C227.775589,182.349625 227.727325,182.021576 227.465393,181.473068 
	C227.465393,181.473068 227.395462,181.180161 227.949722,180.662491 
	C230.169418,178.153061 230.530029,175.856567 226.976471,173.341232 
	C225.422913,170.953171 223.838837,169.017181 221.403320,173.553970 
	C220.986145,176.285828 220.559845,179.016556 220.222809,181.758270 
	C220.216614,181.808670 221.273300,181.989716 221.961517,182.771759 
	C222.306396,183.575928 222.651276,184.380096 223.379913,185.472794 
	C224.825623,184.542679 226.271332,183.612564 227.885315,182.798248 
	C227.885315,182.798248 227.861618,183.001129 227.813751,182.679092 
M220.479767,170.517502 
	C220.479767,170.517502 220.514664,170.510742 220.479767,170.517502 
z"/>
<path fill="#313748" opacity="1.000000" stroke="none" 
	d="
M244.917206,179.477493 
	C244.721512,179.176910 244.525818,178.876312 244.596375,178.079376 
	C245.431259,174.379852 245.999893,171.176697 246.710754,167.172455 
	C247.724426,168.253342 249.446426,169.602371 250.503586,171.352921 
	C251.574081,173.125595 251.987015,175.295364 252.687973,177.291199 
	C252.687973,177.291199 252.580383,177.552017 252.467529,177.817810 
	C252.361938,178.479660 252.369202,178.875717 252.376480,179.271774 
	C252.376480,179.271774 252.583099,179.421326 252.409210,179.887695 
	C251.948761,181.800690 251.850021,183.320480 251.322922,184.673401 
	C250.794815,186.028885 249.839050,187.217758 249.070740,188.479660 
	C247.889557,187.457153 246.178970,186.649384 245.655869,185.359894 
	C244.938065,183.590393 245.120529,181.455704 244.917206,179.477493 
z"/>
<path fill="#2C303E" opacity="1.000000" stroke="none" 
	d="
M252.770538,176.946930 
	C251.987015,175.295364 251.574081,173.125595 250.503586,171.352921 
	C249.446426,169.602371 247.724426,168.253342 246.710754,167.172455 
	C245.999893,171.176697 245.431259,174.379852 244.545242,177.810623 
	C243.634155,175.013062 243.029373,171.989990 242.455582,168.961060 
	C242.333603,168.317062 242.024948,167.404938 242.321960,167.044266 
	C243.089203,166.112503 244.135742,164.768631 245.090561,164.752365 
	C248.099716,164.701141 251.168533,164.971512 254.083817,165.665421 
	C254.579208,165.783310 254.722031,168.645950 254.510513,170.168671 
	C254.207779,172.348038 253.428741,174.461212 252.770538,176.946930 
z"/>
<path fill="#2E3341" opacity="1.000000" stroke="none" 
	d="
M233.840591,69.986633 
	C236.052185,70.603294 237.864792,71.113884 239.500092,71.965088 
	C239.672501,72.054825 238.858307,75.132996 238.405975,75.159019 
	C234.355194,75.392166 230.277771,75.329880 226.227234,75.064262 
	C225.921402,75.044205 225.344391,72.661453 225.674866,71.626518 
	C225.911530,70.885323 227.408813,70.281029 228.425140,70.115242 
	C230.044617,69.851059 231.731934,70.002762 233.840591,69.986633 
z"/>
<path fill="#242937" opacity="1.000000" stroke="none" 
	d="
M190.873138,35.461380 
	C189.444016,35.726406 187.239502,35.740158 187.237350,35.678051 
	C187.095596,31.562910 187.082962,27.439468 187.267410,23.326092 
	C187.279037,23.066799 189.216736,22.430683 189.784882,22.767817 
	C190.642410,23.276657 191.594696,24.481615 191.607712,25.403410 
	C191.653671,28.657591 191.317093,31.917171 190.873138,35.461380 
z"/>
<path fill="#2C303E" opacity="1.000000" stroke="none" 
	d="
M219.794708,53.384583 
	C223.283447,50.653717 226.900818,48.238556 230.518188,45.823395 
	C231.216660,47.311325 232.754807,49.913227 232.485016,50.116596 
	C229.454010,52.401276 226.207108,54.437302 222.832962,56.181747 
	C222.405075,56.402958 220.919098,54.577526 219.794708,53.384583 
z"/>
<path fill="#2A2D3A" opacity="1.000000" stroke="none" 
	d="
M171.907013,38.945232 
	C170.130844,42.423611 167.999176,42.041622 166.178268,39.507267 
	C164.652252,37.383362 163.345428,35.012669 162.455063,32.564499 
	C162.089569,31.559528 163.071747,30.064421 163.440887,28.792271 
	C164.717636,29.179367 166.576492,29.168716 167.163162,30.027330 
	C169.002640,32.719437 170.362854,35.739021 171.907013,38.945232 
z"/>
<path fill="#2C303E" opacity="1.000000" stroke="none" 
	d="
M150.196701,70.336182 
	C152.887558,73.561844 151.948944,75.444679 148.323059,75.836479 
	C145.888168,76.099594 143.356155,76.048683 140.944901,75.659424 
	C139.975128,75.502869 138.414963,73.926178 138.534592,73.242889 
	C138.733063,72.109375 139.973755,70.426506 140.949280,70.298325 
	C143.856476,69.916336 146.848206,70.177750 150.196701,70.336182 
z"/>
<path fill="#2A2D3A" opacity="1.000000" stroke="none" 
	d="
M215.399292,31.722374 
	C213.832840,34.619370 212.601364,37.358906 210.811600,39.665199 
	C210.105621,40.574936 208.154922,40.518742 206.771011,40.902390 
	C206.544250,39.611164 205.777573,38.097862 206.198990,37.073235 
	C207.188385,34.667770 208.518539,32.316860 210.128494,30.272896 
	C212.380386,27.413956 214.445938,27.505323 215.399292,31.722374 
z"/>
<path fill="#2C303E" opacity="1.000000" stroke="none" 
	d="
M148.640045,92.678192 
	C151.520752,91.589043 154.159012,86.924103 156.709320,91.178955 
	C159.240356,95.401665 153.776947,95.494698 151.895706,97.454086 
	C151.680573,97.678169 151.324875,97.869560 151.021652,97.890274 
	C149.003387,98.028160 145.800949,98.953613 145.172882,98.068840 
	C142.895767,94.861061 146.484451,94.197128 148.640045,92.678192 
z"/>
<path fill="#2A2D3A" opacity="1.000000" stroke="none" 
	d="
M212.138931,186.386536 
	C222.018097,192.988235 233.472351,188.325317 235.166779,176.635895 
	C235.309296,175.652725 235.583313,174.688614 235.917725,173.334717 
	C238.839447,182.058167 235.154495,188.563309 226.098450,190.110016 
	C222.862335,190.662704 219.530289,190.678879 216.237946,190.869446 
	C213.408768,191.033203 211.779526,189.874115 212.138931,186.386536 
z"/>
<path fill="#2C303E" opacity="1.000000" stroke="none" 
	d="
M244.681366,179.807709 
	C245.120529,181.455704 244.938065,183.590393 245.655869,185.359894 
	C246.178970,186.649384 247.889557,187.457153 249.070740,188.479660 
	C249.839050,187.217758 250.794815,186.028885 251.322922,184.673401 
	C251.850021,183.320480 251.948761,181.800690 252.429016,180.013672 
	C253.053696,181.417847 253.296478,183.236923 253.952194,184.892471 
	C255.674927,189.242172 254.867828,190.722717 250.324631,190.911789 
	C248.673859,190.980469 247.001846,190.968933 245.362518,190.786911 
	C242.579361,190.477844 241.724716,188.879608 242.592056,186.241013 
	C243.255829,184.221756 243.830963,182.173355 244.681366,179.807709 
M252.480362,189.515244 
	C252.480362,189.515244 252.512207,189.510635 252.480362,189.515244 
z"/>
<path fill="#2A2D3A" opacity="1.000000" stroke="none" 
	d="
M154.086487,49.917263 
	C156.109421,50.640514 158.548386,51.084454 157.217133,54.220730 
	C155.721481,57.744282 153.543518,55.852512 151.586838,54.817757 
	C150.440155,54.211349 149.437836,53.331932 148.230560,52.231052 
	C148.090530,51.886784 148.217453,51.733791 148.546661,51.816566 
	C150.652161,52.341373 152.428467,52.783409 154.767120,53.365383 
	C154.332550,51.869831 154.078278,50.994774 153.889847,50.069366 
	C153.955673,50.019016 154.086487,49.917263 154.086487,49.917263 
z"/>
<path fill="#2A2D3A" opacity="1.000000" stroke="none" 
	d="
M213.883499,170.522873 
	C217.216461,174.725754 216.635788,179.543335 214.140747,184.690002 
	C213.890549,180.297745 213.905640,175.640656 213.883499,170.522873 
z"/>
<path fill="#2A2D3A" opacity="1.000000" stroke="none" 
	d="
M148.027069,51.963276 
	C145.327820,51.311562 143.068726,50.188496 144.744644,46.925022 
	C146.378937,43.742638 148.279663,46.129803 150.029556,46.977268 
	C150.913727,47.405472 151.744965,47.943012 152.793518,48.737900 
	C152.986908,49.044685 152.886047,49.187847 152.548492,49.128021 
	C150.908157,49.999241 146.010468,45.544514 148.217453,51.733791 
	C148.217453,51.733791 148.090530,51.886784 148.027069,51.963276 
z"/>
<path fill="#0B0B0D" opacity="1.000000" stroke="none" 
	d="
M242.982986,79.992172 
	C242.982986,75.131409 242.982986,70.270645 242.982986,65.409882 
	C245.151306,69.997360 245.082443,74.657990 243.169891,79.688568 
	C243.005142,80.007179 242.982986,79.992172 242.982986,79.992172 
z"/>
<path fill="#0B0B0D" opacity="1.000000" stroke="none" 
	d="
M243.015503,80.016983 
	C242.957657,80.265282 242.889481,80.503784 242.821289,80.742287 
	C242.833359,80.559418 242.845428,80.376541 242.920242,80.092926 
	C242.982986,79.992172 243.005142,80.007179 243.015503,80.016983 
z"/>
<path fill="#2C303E" opacity="1.000000" stroke="none" 
	d="
M252.449890,178.870117 
	C252.369202,178.875717 252.361938,178.479660 252.340759,177.879715 
	C252.392334,177.940033 252.457825,178.204254 252.449890,178.870117 
z"/>
<path fill="#2A2D3A" opacity="1.000000" stroke="none" 
	d="
M153.038010,48.973579 
	C153.377182,49.054913 153.622910,49.258476 153.956375,49.715218 
	C154.086487,49.917263 153.955673,50.019016 153.739624,49.908043 
	C153.319962,49.584679 153.107452,49.381603 152.886047,49.187847 
	C152.886047,49.187847 152.986908,49.044685 153.038010,48.973579 
z"/>
<path fill="#000000" opacity="1.000000" stroke="none" 
	d="
M125.001221,177.091003 
	C126.036148,174.904053 127.060265,173.133987 128.084381,171.363937 
	C129.049454,173.250900 130.104370,175.099670 130.931488,177.045273 
	C131.226166,177.738434 131.237259,178.800934 130.907898,179.459976 
	C130.169281,180.937851 129.136063,182.268478 128.222794,183.659058 
	C127.162514,182.265442 126.024582,180.921310 125.086731,179.449661 
	C124.784103,178.974792 125.007599,178.164673 125.001221,177.091003 
z"/>
<path fill="#000000" opacity="1.000000" stroke="none" 
	d="
M221.855560,172.995590 
	C223.838837,169.017181 225.422913,170.953171 227.166351,173.997391 
	C227.369308,176.829086 227.382385,179.004623 227.395462,181.180161 
	C227.395462,181.180161 227.465393,181.473068 227.542023,181.924255 
	C227.699646,182.584015 227.780640,182.792572 227.861618,183.001129 
	C227.861618,183.001129 227.885315,182.798248 227.484955,182.840881 
	C225.721786,183.650452 224.358978,184.417374 222.996155,185.184296 
	C222.651276,184.380096 222.306396,183.575928 221.940521,181.983612 
	C221.898209,178.462173 221.876877,175.728882 221.855560,172.995590 
z"/>
<path fill="#2C303E" opacity="1.000000" stroke="none" 
	d="
M221.629425,173.274780 
	C221.876877,175.728882 221.898209,178.462173 221.876801,181.652634 
	C221.273300,181.989716 220.216614,181.808670 220.222809,181.758270 
	C220.559845,179.016556 220.986145,176.285828 221.629425,173.274780 
z"/>
<path fill="#2C303E" opacity="1.000000" stroke="none" 
	d="
M227.672592,180.921326 
	C227.382385,179.004623 227.369308,176.829086 227.270554,174.319031 
	C230.530029,175.856567 230.169418,178.153061 227.672592,180.921326 
z"/>
<path fill="#2C303E" opacity="1.000000" stroke="none" 
	d="
M223.188034,185.328552 
	C224.358978,184.417374 225.721786,183.650452 227.400818,182.782990 
	C226.271332,183.612564 224.825623,184.542679 223.188034,185.328552 
z"/>
<path fill="#2C303E" opacity="1.000000" stroke="none" 
	d="
M227.837677,182.840118 
	C227.780640,182.792572 227.699646,182.584015 227.643814,182.035217 
	C227.727325,182.021576 227.775589,182.349625 227.837677,182.840118 
z"/>
<path fill="#2C303E" opacity="1.000000" stroke="none" 
	d="
M220.497223,170.514130 
	C220.514664,170.510742 220.479767,170.517502 220.497223,170.514130 
z"/>
<path fill="#313748" opacity="1.000000" stroke="none" 
	d="
M252.496277,189.512939 
	C252.512207,189.510635 252.480362,189.515244 252.496277,189.512939 
z"/>
<path fill="#313748" opacity="1.000000" stroke="none" 
	d="
M152.548492,49.128021 
	C153.107452,49.381603 153.319962,49.584679 153.673798,49.958389 
	C154.078278,50.994774 154.332550,51.869831 154.767120,53.365383 
	C152.428467,52.783409 150.652161,52.341373 148.546661,51.816566 
	C146.010468,45.544514 150.908157,49.999241 152.548492,49.128021 
z"/>
</svg>